<svg width="16" height="16" viewBox="0 0 16 16" fill="none" xmlns="http://www.w3.org/2000/svg">
	<rect x="2.5" y="2.5" width="11" height="11" rx="1.5" fill="#2F2936" stroke="#B589EC"/>
	<path d="M8.01837 11.62C7.46837 11.62 6.98004 11.5033 6.55337 11.27C6.1267 11.0333 5.79504 10.7033 5.55837 10.28C5.3217 9.85667 5.20337 9.37333 5.20337 8.83V4.5H6.21837V8.825C6.21837 9.19167 6.29337 9.51833 6.44337 9.805C6.59337 10.0917 6.80337 10.3133 7.07337 10.47C7.3467 10.6267 7.6617 10.705 8.01837 10.705C8.36837 10.705 8.67504 10.6267 8.93837 10.47C9.20504 10.31 9.4117 10.0883 9.55837 9.805C9.70504 9.51833 9.77837 9.19167 9.77837 8.825V4.5H10.7934V8.83C10.7934 9.37333 10.675 9.85667 10.4384 10.28C10.205 10.7033 9.87837 11.0333 9.45837 11.27C9.0417 11.5033 8.5617 11.62 8.01837 11.62Z"
	      fill="#B589EC"/>
</svg>
