<svg width="16" height="16" viewBox="0 0 16 16" fill="none" xmlns="http://www.w3.org/2000/svg">
	<rect x="2.5" y="2.5" width="11" height="11" rx="1.5" fill="#402929" stroke="#DB5C5C"/>
	<path d="M8.0976 11.5164C7.4768 11.5164 6.9142 11.3645 6.4098 11.0605C5.90863 10.7566 5.51417 10.3379 5.2264 9.80437C4.94187 9.26764 4.7996 8.66786 4.7996 8.00502C4.7996 7.34219 4.94187 6.74402 5.2264 6.21052C5.51417 5.67379 5.90863 5.25346 6.4098 4.94952C6.9142 4.64559 7.4768 4.49362 8.0976 4.49362C8.62463 4.49362 9.11287 4.60194 9.5623 4.81857C10.015 5.03197 10.3852 5.32621 10.6729 5.70127C10.9639 6.07311 11.1385 6.48212 11.1967 6.92832H10.1976C10.1427 6.64379 10.015 6.38674 9.8145 6.15717C9.61403 5.92437 9.36345 5.74007 9.06275 5.60427C8.76528 5.46524 8.44518 5.39572 8.10245 5.39572C7.66595 5.39572 7.27472 5.50727 6.92875 5.73037C6.58278 5.95347 6.31118 6.26226 6.11395 6.65672C5.91995 7.05119 5.82295 7.50062 5.82295 8.00502C5.82295 8.50942 5.91995 8.95886 6.11395 9.35332C6.31118 9.74779 6.58278 10.0566 6.92875 10.2797C7.27795 10.5028 7.6708 10.6143 8.1073 10.6143C8.50177 10.6143 8.85905 10.5351 9.17915 10.3767C9.49925 10.215 9.75307 9.99029 9.9406 9.70252C10.1281 9.41476 10.2267 9.09142 10.2364 8.73252V8.75677H8.5341V7.89832H11.2404V8.42212C11.2404 9.00412 11.1046 9.53116 10.833 10.0032C10.5614 10.4753 10.1863 10.8455 9.7078 11.1139C9.22927 11.3822 8.69253 11.5164 8.0976 11.5164Z"
	      fill="#DB5C5C"/>
</svg>
